<?xml version="1.0" standalone="no"?>
<!DOCTYPE svg PUBLIC "-//W3C//DTD SVG 20010904//EN"
 "http://www.w3.org/TR/2001/REC-SVG-20010904/DTD/svg10.dtd">
<svg version="1.0" xmlns="http://www.w3.org/2000/svg"
 width="512.000000pt" height="512.000000pt" viewBox="0 0 512.000000 512.000000"
 preserveAspectRatio="xMidYMid meet">
<metadata>
Created by potrace 1.11, written by Peter Selinger 2001-2013
</metadata>
<g transform="translate(0.000000,512.000000) scale(0.100000,-0.100000)"
fill="#000000" stroke="none">
<path d="M2361 4899 c-439 -39 -853 -197 -1211 -463 -127 -94 -368 -336 -466
-468 -249 -334 -399 -707 -455 -1128 -16 -120 -16 -448 0 -560 76 -548 289
-986 664 -1369 574 -586 1426 -827 2226 -630 493 121 928 397 1262 799 145
174 300 446 383 673 229 619 175 1346 -141 1926 -192 352 -498 674 -843 886
-413 254 -936 377 -1419 334z m1213 -1841 c-17 -18 -215 -240 -439 -493 -224
-253 -413 -461 -419 -463 -6 -1 -103 90 -216 202 l-204 205 -310 -315 -309
-316 -81 81 -81 81 393 392 392 393 209 -209 209 -209 368 416 369 416 75 -74
74 -75 -30 -32z"/>
</g>
</svg>
